<svg width="144" height="144" viewBox="0 0 144 144" fill="none" xmlns="http://www.w3.org/2000/svg">

<rect x="13" y="30" width="118" height="83" rx="24" fill="#262626"/>
<path d="M71.2754 71.9091C71.2754 74.7216 70.7555 77.1335 69.7157 79.1449C68.676 81.1477 67.2527 82.6861 65.4459 83.7599C63.6476 84.8253 61.6106 85.358 59.3351 85.358C57.0595 85.358 55.0226 84.821 53.2243 83.7472C51.426 82.6733 50.0069 81.1349 48.9672 79.1321C47.9274 77.1207 47.4075 74.7131 47.4075 71.9091C47.4075 69.0966 47.9274 66.6889 48.9672 64.6861C50.0069 62.6747 51.426 61.1364 53.2243 60.071C55.0226 58.9972 57.0595 58.4602 59.3351 58.4602C61.6106 58.4602 63.6476 58.9972 65.4459 60.071C67.2527 61.1364 68.676 62.6747 69.7157 64.6861C70.7555 66.6889 71.2754 69.0966 71.2754 71.9091ZM66.8521 71.9091C66.8521 69.8636 66.5282 68.1378 65.8805 66.7315C65.2328 65.3253 64.3422 64.2642 63.2086 63.5483C62.0836 62.8239 60.7924 62.4616 59.3351 62.4616C57.8862 62.4616 56.595 62.8239 55.4615 63.5483C54.3365 64.2642 53.4501 65.3253 52.8024 66.7315C52.1547 68.1378 51.8308 69.8636 51.8308 71.9091C51.8308 73.9545 52.1547 75.6804 52.8024 77.0866C53.4501 78.4929 54.3365 79.5582 55.4615 80.2827C56.595 80.9986 57.8862 81.3565 59.3351 81.3565C60.7924 81.3565 62.0836 80.9986 63.2086 80.2827C64.3422 79.5582 65.2328 78.4929 65.8805 77.0866C66.5282 75.6804 66.8521 73.9545 66.8521 71.9091ZM95.867 58.8182V85H91.8912L79.1582 66.6165H78.9281V85H74.5048V58.8182H78.519L91.2392 77.2145H91.4693V58.8182H95.867Z" fill="white"/>
</svg>
