<svg width="144" height="144" viewBox="0 0 144 144" fill="none" xmlns="http://www.w3.org/2000/svg">

<rect x="13" y="31" width="118" height="83" rx="24" fill="#FFFFFF"/>
<path d="M43.864 86V59.8182H53.4904C55.5103 59.8182 57.1978 60.1932 58.5529 60.9432C59.908 61.6847 60.9308 62.7031 61.6211 63.9986C62.3115 65.294 62.6566 66.7642 62.6566 68.4091C62.6566 70.0625 62.3072 71.5369 61.6083 72.8324C60.918 74.1278 59.891 75.1506 58.5274 75.9006C57.1637 76.642 55.472 77.0128 53.4521 77.0128H46.9705V73.331H52.9151C54.1424 73.331 55.1396 73.1179 55.9066 72.6918C56.6737 72.2656 57.2404 71.6861 57.6069 70.9531C57.9734 70.2116 58.1566 69.3636 58.1566 68.4091C58.1566 67.4631 57.9734 66.6236 57.6069 65.8906C57.2404 65.1577 56.6694 64.5866 55.8938 64.1776C55.1268 63.7599 54.1254 63.5511 52.8896 63.5511H48.2873V86H43.864ZM65.5217 86V59.8182H82.0898V63.5639H69.945V71.017H80.9265V74.7628H69.945V86H65.5217ZM85.1754 86V59.8182H89.5987V82.2543H101.271V86H85.1754Z" fill="#262626"/>
</svg>
