<svg width="144" height="144" viewBox="0 0 144 144" fill="none" xmlns="http://www.w3.org/2000/svg">

<rect x="7" y="33" width="130" height="83" rx="24" fill="#262626"/>
<path d="M28.0781 88V61.8182H32.5014V84.2543H44.1733V88H28.0781ZM69.1133 74.9091C69.1133 77.7216 68.5934 80.1335 67.5536 82.1449C66.5139 84.1477 65.0906 85.6861 63.2837 86.7599C61.4854 87.8253 59.4485 88.358 57.1729 88.358C54.8974 88.358 52.8604 87.821 51.0622 86.7472C49.2639 85.6733 47.8448 84.1349 46.805 82.1321C45.7653 80.1207 45.2454 77.7131 45.2454 74.9091C45.2454 72.0966 45.7653 69.6889 46.805 67.6861C47.8448 65.6747 49.2639 64.1364 51.0622 63.071C52.8604 61.9972 54.8974 61.4602 57.1729 61.4602C59.4485 61.4602 61.4854 61.9972 63.2837 63.071C65.0906 64.1364 66.5139 65.6747 67.5536 67.6861C68.5934 69.6889 69.1133 72.0966 69.1133 74.9091ZM64.69 74.9091C64.69 72.8636 64.3661 71.1378 63.7184 69.7315C63.0707 68.3253 62.18 67.2642 61.0465 66.5483C59.9215 65.8239 58.6303 65.4616 57.1729 65.4616C55.7241 65.4616 54.4329 65.8239 53.2994 66.5483C52.1744 67.2642 51.288 68.3253 50.6403 69.7315C49.9925 71.1378 49.6687 72.8636 49.6687 74.9091C49.6687 76.9545 49.9925 78.6804 50.6403 80.0866C51.288 81.4929 52.1744 82.5582 53.2994 83.2827C54.4329 83.9986 55.7241 84.3565 57.1729 84.3565C58.6303 84.3565 59.9215 83.9986 61.0465 83.2827C62.18 82.5582 63.0707 81.4929 63.7184 80.0866C64.3661 78.6804 64.69 76.9545 64.69 74.9091ZM73.8736 88H69.1562L78.4631 61.8182H83.794L93.1008 88H88.3835L81.2372 66.9446H81.0327L73.8736 88ZM74.2571 77.7344H87.9744V81.3523H74.2571V77.7344ZM103.985 88H95.266V61.8182H104.189C106.78 61.8182 109.005 62.3423 110.863 63.3906C112.721 64.4304 114.148 65.9261 115.145 67.8778C116.142 69.8295 116.641 72.1605 116.641 74.8707C116.641 77.598 116.138 79.946 115.132 81.9148C114.135 83.875 112.691 85.3793 110.799 86.4276C108.915 87.4759 106.644 88 103.985 88ZM99.6893 84.152H103.767C105.651 84.152 107.223 83.8026 108.485 83.1037C109.746 82.4048 110.688 81.3693 111.31 79.9972C111.941 78.6165 112.256 76.9077 112.256 74.8707C112.256 72.8509 111.945 71.1591 111.323 69.7955C110.701 68.4233 109.772 67.392 108.536 66.7017C107.3 66.0114 105.766 65.6662 103.934 65.6662H99.6893V84.152Z" fill="white"/>
</svg>
